# xmcd
#
# Track frame offsets:
#	150
#	15737
#	44650
#	71872
#	98272
#	129272
#	170402
#	206062
#
# Disc length: 2810 seconds
#
# Revision: 0
# Processed by: cddbd v1.5.2PL0 Copyright (c) Steve Scherf et al.
# Submitted via: EasyCDDAExtractor 2010.6.0.0
#
DISCID=690af808
DTITLE=Tellus - Hey Ho
DYEAR=1996
DGENRE=Dance
TTITLE0=Hey Ho (Radio Mix)
TTITLE1=Hey Ho (X-tended Mix)
TTITLE2=Hey Ho (PIerre J's Retro Mix)
TTITLE3=Hey Ho (ITM's Classic Piano Mix)
TTITLE4=Hey Ho (Nello's Abnormal Mix)
TTITLE5=Hey Ho (Picknick Tribal Mix)
TTITLE6=Hey Ho (J.A.M.'s Dub Culture Remix)
TTITLE7=Hey Ho
EXTD=
EXTT0=
EXTT1=
EXTT2=
EXTT3=
EXTT4=
EXTT5=
EXTT6=
EXTT7=
PLAYORDER=
